<?xml version="1.0" encoding="utf-8"?>
<!-- Generator: Adobe Illustrator 21.1.0, SVG Export Plug-In . SVG Version: 6.00 Build 0)  -->
<svg version="1.1" id="Layer_1" xmlns="http://www.w3.org/2000/svg" xmlns:xlink="http://www.w3.org/1999/xlink" x="0px" y="0px"
	 viewBox="0 0 32.3 32" style="enable-background:new 0 0 32.3 32;" xml:space="preserve">
<style type="text/css">
	.st0{fill:#044885;}
	.st1{fill:#DBCA82;}
</style>
<path class="st0" d="M29.2,32.1h-26c-1.6,0-3-1.3-3-3v-26c0-1.6,1.3-3,3-3h26c1.6,0,3,1.3,3,3v26C32.2,30.8,30.8,32.1,29.2,32.1z"/>
<g>
	<g>
		<g>
			<path class="st1" d="M23.7,15.1l-1.5,2.4h0.6c0,0.1,0,0.5,0,0.8c-0.1,0.5-0.2,1.2-0.6,2c-0.9,1.7-2.6,2.9-5.1,3.6v-7.6h2.7v-1.8
				h-2.7v-1.6c1.4-0.4,2.4-1.7,2.4-3.2c0-1.8-1.5-3.3-3.3-3.3s-3.3,1.5-3.3,3.3c0,1.5,1,2.8,2.4,3.2v1.6h-2.7v1.8h2.7v7.6
				C14,23.5,13,23,12.1,22.4c-0.8-0.6-1.5-1.3-1.9-2.2c-0.4-0.8-0.5-1.5-0.6-1.9c0-0.1,0-0.5,0-0.8h0.6l-1.5-2.4l-1.5,2.4h0.6
				c0,0.2,0,0.8,0,1C7.8,19.1,8,20,8.6,21c0.6,1.1,1.4,2,2.5,2.8c1.3,0.9,3,1.6,4.9,2l0.2,0l0.2,0c3.6-0.8,6.1-2.4,7.4-4.8
				c0.5-1,0.8-2,0.8-2.6l0,0c0-0.4,0-0.8,0-1h0.6L23.7,15.1z M16.2,11.2c-0.8,0-1.5-0.7-1.5-1.5s0.7-1.5,1.5-1.5
				c0.8,0,1.5,0.7,1.5,1.5C17.7,10.5,17,11.2,16.2,11.2z"/>
		</g>
	</g>
</g>
</svg>
